<svg id="Capa_2_copia_2" data-name="Capa 2 copia 2" xmlns="http://www.w3.org/2000/svg" viewBox="0 0 198.43 113.04"><defs><style>.cls-1,.cls-2{fill:#fff;}.cls-2{stroke:#fff;stroke-miterlimit:10;stroke-width:0.25px;}</style></defs><path class="cls-1" d="M100.3,102.33A45.25,45.25,0,0,1,57.6,72l.29-.1a44.9,44.9,0,0,0,84.83,0l.29.1A45.26,45.26,0,0,1,100.3,102.33Z"/><path class="cls-1" d="M100.3,102.45A45.37,45.37,0,0,1,57.48,72l0-.11.52-.19,0,.12a44.79,44.79,0,0,0,84.6,0l0-.12.53.19,0,.11A45.36,45.36,0,0,1,100.3,102.45ZM57.76,72.05a45.09,45.09,0,0,0,85.09,0l0,0a45,45,0,0,1-85,0Z"/><path class="cls-1" d="M144.5,49.16a44.9,44.9,0,0,0-88.39,0l-.3,0a45.21,45.21,0,0,1,89,0Z"/><path class="cls-1" d="M56.21,49.31l-.55-.1,0-.13a45.33,45.33,0,0,1,89.23,0l0,.13-.54.1,0-.13a44.78,44.78,0,0,0-88.14,0ZM100.3,12.08A45,45,0,0,1,144.6,49h.05A45.08,45.08,0,0,0,56,49H56A44.94,44.94,0,0,1,100.3,12.08Z"/><path class="cls-1" d="M109.2,76.62a.55.55,0,0,0-.53.42H91.94a.57.57,0,0,0-.54-.42.58.58,0,0,0-.57.57.56.56,0,0,0,1.11.15h16.73a.55.55,0,0,0,.53.42.56.56,0,0,0,.57-.57A.57.57,0,0,0,109.2,76.62Z"/><path class="cls-1" d="M91.59,47.62a12.7,12.7,0,0,0,2.16-1,14.22,14.22,0,0,0,1.89-1.28,14,14,0,0,0,2.94-3.13c.81-1.16,1.56-2.35,2.31-3.54l2.23-3.58c-.58,1.27-1.24,2.5-1.93,3.72s-1.44,2.42-2.23,3.6a13.79,13.79,0,0,1-3.07,3.13A13.61,13.61,0,0,1,91.59,47.62Z"/><path class="cls-1" d="M115.61,37.44A14,14,0,0,1,112,39.15a16.28,16.28,0,0,1-1.95.47,9.78,9.78,0,0,1-2,.16c-.68,0-1.35-.12-2-.18a18.43,18.43,0,0,0-2-.09,11.62,11.62,0,0,0-3.87.66,9.54,9.54,0,0,1,3.86-1,15,15,0,0,1,2,0c.68.05,1.32.15,2,.16a10.56,10.56,0,0,0,1.94-.14,18.36,18.36,0,0,0,1.93-.4,18.56,18.56,0,0,0,1.88-.59A16.21,16.21,0,0,0,115.61,37.44Z"/><path class="cls-1" d="M92.85,28a13.9,13.9,0,0,0,1.36,1.07c.47.35.94.67,1.43,1l.36.23a2.63,2.63,0,0,1,.37.29,3.54,3.54,0,0,1,.59.7,8.45,8.45,0,0,1,.78,1.6c.41,1.1.72,2.21,1.15,3.27a6.06,6.06,0,0,0,2,2.75,4.25,4.25,0,0,1-1.35-1.11,7.8,7.8,0,0,1-.93-1.5c-.52-1.06-.84-2.19-1.26-3.25a4.77,4.77,0,0,0-1.89-2.69A14.06,14.06,0,0,1,92.85,28Z"/><path class="cls-1" d="M106,23a8.87,8.87,0,0,1,.18,3.94,5.81,5.81,0,0,1-.69,1.89c-.31.58-.65,1.15-1,1.71a34.87,34.87,0,0,0-1.92,3.41,11.45,11.45,0,0,0-1,3.76,11,11,0,0,1,.11-2,9.88,9.88,0,0,1,.54-1.91,23.85,23.85,0,0,1,1.86-3.5l1-1.69a6.16,6.16,0,0,0,.72-1.76,8.78,8.78,0,0,0,.25-1.92A12.75,12.75,0,0,0,106,23Z"/><path class="cls-1" d="M106,23a7.07,7.07,0,0,1-.4,1.81,3,3,0,0,1-.44.83,1.46,1.46,0,0,1-.36.34,4.28,4.28,0,0,0-.33.29,12.46,12.46,0,0,0-2.09,3,10.13,10.13,0,0,0-1.11,3.44,5.89,5.89,0,0,0,.08,1.78,10.94,10.94,0,0,0,.62,1.7h-.4a5.27,5.27,0,0,1,1.27-1.53l.39-.31.38-.27a5,5,0,0,0,.62-.67,15.08,15.08,0,0,0,1.91-3.24,10.56,10.56,0,0,0,1-3.64,5.32,5.32,0,0,0-.19-1.86A4.31,4.31,0,0,0,106,23Zm0,0a4.73,4.73,0,0,1,1.32,3.52,11.32,11.32,0,0,1-.86,3.76,14.5,14.5,0,0,1-1.91,3.36,5.21,5.21,0,0,1-.68.73c-.15.12-.27.2-.4.29l-.36.29a5.09,5.09,0,0,0-1.15,1.4l-.22.44-.17-.44a11.1,11.1,0,0,1-.62-1.79,6.07,6.07,0,0,1-.07-1.9,9.59,9.59,0,0,1,1.21-3.55,12.81,12.81,0,0,1,2.23-3,2.79,2.79,0,0,1,.38-.3,1.12,1.12,0,0,0,.33-.28,2.74,2.74,0,0,0,.47-.77A8.16,8.16,0,0,0,106,23Z"/><path class="cls-1" d="M101.37,38.22a17.22,17.22,0,0,0,1.66-1,8.19,8.19,0,0,0,1.49-1.17c.41-.47.82-1,1.26-1.46s.89-1,1.37-1.39A13.29,13.29,0,0,1,110.37,31a8.11,8.11,0,0,1,1.86-.61,5.27,5.27,0,0,1,1.94,0,6.69,6.69,0,0,0-3.66.88,15.58,15.58,0,0,0-3.07,2.24c-1,.86-1.78,1.81-2.68,2.77A10.65,10.65,0,0,1,101.37,38.22Z"/><path class="cls-1" d="M107.47,36.59a2.61,2.61,0,0,0,1-.63,7.75,7.75,0,0,0,.84-.88,17.51,17.51,0,0,0,1.42-2,4.92,4.92,0,0,1,.71-1,5.13,5.13,0,0,1,1-.77,11.08,11.08,0,0,1,2.21-1.09v.29c-.63-.15-1.27-.27-1.9-.38a11.32,11.32,0,0,0-1.91-.18,2.22,2.22,0,0,0-.45,0,1.36,1.36,0,0,0-.41.15,3.23,3.23,0,0,0-.41.22l-.41.25a18.81,18.81,0,0,0-1.55,1.15,26.25,26.25,0,0,0-2.79,2.69,16.31,16.31,0,0,0-2.23,3.17l-.06-.07,2.47-.48Zm0,0-2.46.53c-.81.18-1.64.35-2.45.54l-.11,0,0-.11a16.86,16.86,0,0,1,2.12-3.3,19.74,19.74,0,0,1,2.75-2.81,16.8,16.8,0,0,1,1.57-1.21,6.16,6.16,0,0,1,.87-.5,2.78,2.78,0,0,1,.51-.17,3.15,3.15,0,0,1,.53,0,16.34,16.34,0,0,1,3.89.67l.5.14-.49.16a11.07,11.07,0,0,0-2.2,1,5.33,5.33,0,0,0-1,.71,5,5,0,0,0-.73.95,19.9,19.9,0,0,1-1.47,2,7.84,7.84,0,0,1-.85.88A2.84,2.84,0,0,1,107.47,36.59Z"/><path class="cls-1" d="M115.61,37.44a18.21,18.21,0,0,0-3.45-.3,17.16,17.16,0,0,0-3.43.3,22.24,22.24,0,0,0-3.31.92,18.68,18.68,0,0,0-3.09,1.48l0-.34a6.28,6.28,0,0,0,3.25,1.41,16,16,0,0,0,3.65-.19,13.9,13.9,0,0,0,3.54-1A5.87,5.87,0,0,0,115.61,37.44ZM105.28,38a18.38,18.38,0,0,1,3.39-.88,17.1,17.1,0,0,1,3.5-.19,17.32,17.32,0,0,1,3.44.51,5.8,5.8,0,0,1-2.73,2.49,14.84,14.84,0,0,1-3.57,1.13,15.15,15.15,0,0,1-3.75.25,6,6,0,0,1-1.86-.49,6.56,6.56,0,0,1-1.63-1l-.22-.19.24-.15"/><path class="cls-1" d="M92.85,28a4.05,4.05,0,0,1,1.75-.41,2.63,2.63,0,0,1,1.71.6,7.48,7.48,0,0,1,1.85,3.12c.42,1.14.63,2.35,1,3.48s.79,2.25,1.25,3.34l.26.61-.56-.33A5.92,5.92,0,0,1,99,37.6a10.35,10.35,0,0,1-.89-1,13.15,13.15,0,0,1-.76-1.08c-.24-.37-.45-.76-.66-1.15h0a33.13,33.13,0,0,0-2.64-3.7c-.48-.58-1-1.09-1.55-1.68a2.7,2.7,0,0,1-.61-1,.29.29,0,0,1,0-.16.19.19,0,0,1,.13-.12.7.7,0,0,1,.29,0A2.5,2.5,0,0,1,92.85,28Zm0,0a2.47,2.47,0,0,0-.54-.19.59.59,0,0,0-.26,0c-.09,0-.1.12-.08.2a3.13,3.13,0,0,0,.64.91c.26.27.54.53.82.79a10.57,10.57,0,0,1,.82.82A27.57,27.57,0,0,1,97,34.21h0a12.86,12.86,0,0,0,1.4,2.14,9.58,9.58,0,0,0,.86.94,6.8,6.8,0,0,0,1,.76l-.3.27c-.45-1.11-.88-2.24-1.22-3.4-.18-.59-.3-1.18-.44-1.76S98,32,97.85,31.45a7.33,7.33,0,0,0-1.68-3.07,2.5,2.5,0,0,0-1.58-.65A4.38,4.38,0,0,0,92.85,28Z"/><path class="cls-2" d="M85.18,85.23a.65.65,0,0,1-.47.63.74.74,0,0,1,.57.73c0,.59-.56.76-1,.76H83V84.44h1.2C84.72,84.44,85.18,84.68,85.18,85.23Zm-1.92.53h1c.34,0,.71-.11.71-.53s-.38-.6-.74-.6h-1Zm0,1.37h1c.36,0,.83-.09.83-.55s-.41-.61-.8-.61h-1Z"/><path class="cls-2" d="M90,87.35V84.44h.22v2.91Z"/><path class="cls-2" d="M97,85a.93.93,0,0,0-.88-.39c-.34,0-.88.12-.88.59s.4.45.89.54,1.14.21,1.14.84-.66.81-1.15.81a1.3,1.3,0,0,1-1.19-.63l.2-.1a1.15,1.15,0,0,0,1,.53c.36,0,.93-.1.93-.62s-.48-.53-1-.62S95,85.74,95,85.2s.63-.8,1.1-.8a1.12,1.12,0,0,1,1.07.49Z"/><path class="cls-2" d="M102.68,84.64h-1.05v-.2H104v.2h-1v2.71h-.22Z"/><path class="cls-2" d="M110.85,87.35h-.3l-1-1.1h-.79v1.1h-.23V84.44h1.28a.91.91,0,0,1,1,.91.86.86,0,0,1-1,.88ZM108.76,86h1a.64.64,0,0,0,.73-.69.67.67,0,0,0-.71-.69h-1Z"/><path class="cls-2" d="M118.18,85.9a1.47,1.47,0,1,1-1.46-1.51A1.4,1.4,0,0,1,118.18,85.9Zm-2.71,0a1.25,1.25,0,1,0,2.5,0,1.25,1.25,0,1,0-2.5,0Z"/><path class="cls-1" d="M39.56,53.4h3l6.19,12.43L55,53.4h3.37v.33c-2.18.21-2.39.45-2.3,2.79l.17,8.32c.07,2.42.16,2.72,2.37,2.91v.33H52.81v-.33c2.06-.16,2.14-.47,2.11-2.91L54.83,55h-.1L48.38,67.82h-.21l-5.77-12h0l-.3,6.33C42,63.23,42,64,42,64.66c0,2.25.23,2.88,2.41,3.09v.33H38.72v-.33c1.45-.12,2-.52,2.13-1.45a31.22,31.22,0,0,0,.52-4.53l.33-4.29c0-.63,0-1.15,0-1.57,0-1.66-.39-2-2.18-2.18Z"/><path class="cls-1" d="M58.81,68.33H52.56v-.81l.23,0c1.83-.14,1.9-.24,1.88-2.66l-.08-9L48.54,68.07H48l-.07-.14L42.56,56.71l-.26,5.43c-.06,1-.09,1.8-.09,2.52,0,2.17.18,2.65,2.19,2.84l.22,0v.81H38.47v-.81l.23,0c1.43-.11,1.76-.49,1.91-1.25a32,32,0,0,0,.51-4.5l.34-4.59c0-.49,0-.9,0-1.25,0-1.49-.23-1.73-2-1.93l-.23,0v-.8H42.7l6,12.12,6.06-12.12h3.78V54l-.22,0c-2.07.2-2.17.32-2.08,2.53l.17,8.33c.06,2.3.07,2.49,2.14,2.66l.23,0ZM54,67.83h3.34c-1.21-.3-1.33-1-1.39-3l-.17-8.33c-.07-2,.1-2.58,1.35-2.87h-2L48.73,66.39,42.39,53.65h-1.8c1,.27,1.4.8,1.4,2.26,0,.35,0,.77,0,1.27v.31l-.33,4.3a33.78,33.78,0,0,1-.52,4.56,1.72,1.72,0,0,1-1.34,1.48h3.56c-1.46-.39-1.61-1.3-1.61-3.17,0-.73,0-1.56.09-2.55l.32-6.57h.39l.12.15,5.65,11.78,6.3-12.72h.5l.09,10.09C55.19,66.79,55.15,67.52,54,67.83Z"/><path class="cls-1" d="M76.28,60.53a7.89,7.89,0,0,1-8.18,7.9,7.51,7.51,0,0,1-7.76-7.5,7.93,7.93,0,0,1,8.28-7.88A7.5,7.5,0,0,1,76.28,60.53ZM62,60.25c0,4.57,2.88,7.62,6.68,7.62,3.17,0,6-2.18,6-6.36,0-5.32-3-7.9-6.75-7.9C64.82,53.64,62,55.72,62,60.25Z"/><path class="cls-1" d="M68.1,68.68a7.8,7.8,0,0,1-8-7.75,8.15,8.15,0,0,1,8.53-8.13,7.75,7.75,0,0,1,7.91,7.73A8.11,8.11,0,0,1,68.1,68.68ZM65.45,53.86a7.56,7.56,0,0,0-4.86,7.07,7.22,7.22,0,0,0,7.51,7.25A8.5,8.5,0,0,0,69.79,68a6.17,6.17,0,0,1-1.13.1c-4,0-6.93-3.31-6.93-7.87C61.73,56.65,63.43,54.69,65.45,53.86Zm2.48-.5c4.32,0,7,3.13,7,8.15a6.17,6.17,0,0,1-3.86,6.15,7.46,7.46,0,0,0,5-7.13,7.25,7.25,0,0,0-7.41-7.23,10.29,10.29,0,0,0-1.61.13C67.32,53.39,67.63,53.37,67.93,53.36Zm0,.5c-2.64,0-5.71,1.71-5.71,6.39,0,4.34,2.65,7.37,6.43,7.37,2.88,0,5.78-1.89,5.78-6.11C74.44,56.79,72,53.86,67.94,53.86Z"/><path class="cls-1" d="M78.09,67.75c1.38-.09,2-.56,2.23-1.22a21.28,21.28,0,0,0,.25-4.36V57.08c0-2.08-.11-2-.53-2.48a2.86,2.86,0,0,0-2.14-.87V53.4h2.89L91.62,65.78h.07V59.1c0-4.57,0-5.18-2.77-5.37V53.4h5.82v.33c-1.36.12-1.95.56-2.16,1.24a18,18,0,0,0-.24,4.13v9.14h-.25L81.28,55.93h0v6.24a25.36,25.36,0,0,0,.21,4.31c.21.73.92,1.15,2.49,1.27v.33H78.09Z"/><path class="cls-1" d="M92.59,68.49H92L81.48,56.54v5.63a25.48,25.48,0,0,0,.2,4.25c.13.43.5,1,2.27,1.08l.23,0v.81H77.84v-.81l.23,0c1.16-.08,1.83-.43,2-1a21.09,21.09,0,0,0,.24-4.29V57.08c0-1.77-.07-1.85-.35-2.17l-.13-.15c-.34-.4-.75-.64-2-.78l-.22,0v-.8H80.9L91.44,65.2V59.1c0-4.57,0-5-2.54-5.12l-.23,0v-.81H95V54l-.23,0c-1.47.13-1.81.64-1.94,1.07a18.16,18.16,0,0,0-.23,4.05ZM81,55.68h.36l.13.09,10.62,12.1V59.1a18.29,18.29,0,0,1,.25-4.2,1.85,1.85,0,0,1,1.4-1.25H90.18c1.76.44,1.76,1.7,1.76,5.45V66H91.5L91.43,66,80.67,53.65H78.91a2.4,2.4,0,0,1,1.32.79l.12.14c.38.44.47.62.47,2.5v5.09a20.6,20.6,0,0,1-.26,4.43,1.83,1.83,0,0,1-1.41,1.23h3.62a1.89,1.89,0,0,1-1.57-1.28A25.61,25.61,0,0,1,81,62.17Z"/><path class="cls-1" d="M99.15,67.75c2.34-.12,2.5-.52,2.5-2.3V54H100.2c-3.07,0-3.38.52-4.08,3h-.38c.15-1.38.22-2.79.26-4.1h.38a1,1,0,0,0,.51.49,2.29,2.29,0,0,0,.75.07h9.45a1.09,1.09,0,0,0,1.11-.56l.39,0a39.74,39.74,0,0,0,.21,4l-.39.09c-.57-2.65-1.46-3-3.45-3h-2.09V65.45c0,1.78.17,2.18,2.61,2.3v.33H99.15Z"/><path class="cls-1" d="M105.73,68.33H98.9v-.82h.23c2.21-.11,2.27-.39,2.27-2V54.21h-1.2c-3,0-3.17.45-3.84,2.8l0,.18h-.84l0-.27c.15-1.5.21-3,.25-4.09v-.24h.76l.07.12a.8.8,0,0,0,.39.39,2.33,2.33,0,0,0,.66,0h9.45a.83.83,0,0,0,.9-.46l.08-.11.78.05v.24a30.31,30.31,0,0,0,.18,3.51l0,.66-.86.2,0-.25c-.54-2.52-1.34-2.78-3.2-2.78h-1.84V65.45c0,1.6,0,1.94,2.37,2h.24Zm-5.13-.5H104c-1.19-.28-1.35-.92-1.35-2.38V53.71H105c2,0,3,.38,3.55,2.58a31.1,31.1,0,0,1-.17-3.19h0a1.26,1.26,0,0,1-1.22.55H97.64a2.53,2.53,0,0,1-.83-.08,1.23,1.23,0,0,1-.57-.48c0,.91-.08,2-.18,3.18.66-2.09,1.27-2.56,4.14-2.56h1.7V65.45C101.9,66.91,101.75,67.55,100.6,67.83Z"/><path class="cls-1" d="M119.68,67.75c1.34-.19,1.83-.33,1.83-.89a22.7,22.7,0,0,0-1.57-4.6h-5.41a22.09,22.09,0,0,0-1.41,4.34c0,.8.63.94,1.95,1.15v.33h-5.33v-.33c1.65-.33,2-.54,2.82-2.65l5.08-11.93.29-.12,1.57,4.34c1.08,2.93,2.13,5.86,3,8.11.7,1.73.89,2,2.53,2.25v.33h-5.37Zm-2.27-12.52c-.94,2.09-1.85,4.31-2.6,6.28h4.92l-2.27-6.28Z"/><path class="cls-1" d="M125.3,68.33h-5.87v-.8l.22,0c1.39-.19,1.61-.32,1.61-.64a24.38,24.38,0,0,0-1.49-4.35h-5.09a23.43,23.43,0,0,0-1.31,4.09c0,.55.35.68,1.74.9l.21,0v.79h-5.83v-.78l.2,0c1.56-.31,1.8-.47,2.64-2.5l5.12-12,.62-.26,2.39,6.56c.83,2.26,1.61,4.39,2.29,6.13s.8,1.85,2.34,2.09l.21,0Zm-4.59-.5h3.47c-1-.28-1.29-.76-1.89-2.24-.69-1.74-1.47-3.88-2.3-6.13l-2.19-6-5,11.76c-.74,1.8-1.1,2.3-2.28,2.63h3.6c-.74-.18-1.24-.47-1.24-1.23a22.83,22.83,0,0,1,1.43-4.45l.08-.14h5.73l.06.16a20.89,20.89,0,0,1,1.59,4.69C121.76,67.43,121.38,67.67,120.71,67.83Zm-.62-6.07h-5.64l.12-.33c.8-2.1,1.73-4.34,2.61-6.3l.07-.15h.38Zm-4.92-.5h4.21l-2-5.42C116.65,57.56,115.87,59.46,115.17,61.26Z"/><path class="cls-1" d="M126.13,67.75c1.39-.09,2-.56,2.23-1.22a20.28,20.28,0,0,0,.26-4.36V57.08c0-2.08-.12-2-.54-2.48a2.83,2.83,0,0,0-2.13-.87V53.4h2.88l10.83,12.38h.07V59.1c0-4.57,0-5.18-2.76-5.37V53.4h5.81v.33c-1.36.12-1.95.56-2.16,1.24a18.22,18.22,0,0,0-.23,4.13v9.14h-.26L129.32,55.93h0v6.24a24.28,24.28,0,0,0,.21,4.31c.21.73.91,1.15,2.48,1.27v.33h-5.84Z"/><path class="cls-1" d="M140.64,68.49H140l-.08-.08L129.53,56.54v5.63a26.07,26.07,0,0,0,.2,4.25c.12.43.49,1,2.26,1.08l.23,0v.81h-6.34v-.81l.24,0c1.15-.08,1.83-.43,2-1a20,20,0,0,0,.25-4.29V57.08c0-1.77-.08-1.85-.35-2.17l-.13-.15c-.34-.4-.76-.64-2-.78l-.22,0v-.8h3.24l.08.09,10.46,12V59.1c0-4.57,0-5-2.53-5.12l-.23,0v-.81H143V54l-.23,0c-1.46.13-1.8.64-1.94,1.07a18.31,18.31,0,0,0-.22,4.05ZM129,55.68h.36l.12.09,10.63,12.1V59.1a17.94,17.94,0,0,1,.24-4.2,1.89,1.89,0,0,1,1.4-1.25h-3.55c1.75.44,1.75,1.7,1.75,5.45V66h-.43l-.08-.08-10.75-12.3H127a2.38,2.38,0,0,1,1.31.79l.12.14c.39.44.48.62.48,2.5v5.09a20.33,20.33,0,0,1-.27,4.43,1.83,1.83,0,0,1-1.4,1.23h3.61a1.88,1.88,0,0,1-1.56-1.28,24.55,24.55,0,0,1-.22-4.38Z"/><path class="cls-1" d="M153.5,67.75c1.33-.19,1.82-.33,1.82-.89a22.7,22.7,0,0,0-1.57-4.6h-5.41a22.09,22.09,0,0,0-1.41,4.34c0,.8.63.94,1.95,1.15v.33h-5.33v-.33c1.65-.33,1.95-.54,2.82-2.65l5.09-11.93.28-.12,1.57,4.34c1.08,2.93,2.13,5.86,3,8.11.71,1.73.89,2,2.53,2.25v.33H153.5Zm-2.28-12.52c-.94,2.09-1.85,4.31-2.6,6.28h4.92l-2.27-6.28Z"/><path class="cls-1" d="M159.12,68.33h-5.87v-.8l.21,0c1.39-.19,1.61-.32,1.61-.64a24.38,24.38,0,0,0-1.49-4.35H148.5a22.69,22.69,0,0,0-1.32,4.09c0,.55.35.68,1.74.9l.21,0v.79H143.3v-.78l.21,0c1.55-.31,1.79-.47,2.63-2.5l5.13-12,.61-.26,2.38,6.54c.83,2.26,1.62,4.4,2.31,6.15s.8,1.85,2.33,2.09l.22,0Zm-4.6-.5H158c-1-.28-1.29-.76-1.89-2.24-.69-1.75-1.48-3.89-2.31-6.16l-2.18-6-5,11.76c-.74,1.8-1.1,2.3-2.27,2.63h3.59c-.74-.18-1.24-.47-1.24-1.23a22.16,22.16,0,0,1,1.44-4.45l.07-.14h5.73l.07.16a21.19,21.19,0,0,1,1.58,4.69C155.57,67.43,155.19,67.67,154.52,67.83Zm-.62-6.07h-5.64l.13-.33c.79-2.08,1.71-4.32,2.6-6.3l.07-.15h.39Zm-4.92-.5h4.21l-2-5.42C150.46,57.57,149.67,59.47,149,61.26Z"/></svg>